<svg xmlns="http://www.w3.org/2000/svg" viewBox="0 0 19.828 19.535"><defs><style>.a{fill:#72279f;}</style></defs><path class="a" d="M-2992.714,19.32a.693.693,0,0,1,0-1L-2984.2,9.8l-8.585-8.586a.692.692,0,0,1,0-1,.683.683,0,0,1,.5-.215.69.69,0,0,1,.5.215l8.662,8.64,8.662-8.641a.692.692,0,0,1,1,0,.691.691,0,0,1,0,1l-8.515,8.516,8.586,8.586a.691.691,0,0,1,0,1,.686.686,0,0,1-.5.215.687.687,0,0,1-.5-.215l-8.662-8.64-8.663,8.641a.718.718,0,0,1-.509.215A.666.666,0,0,1-2992.714,19.32Z" transform="translate(2992.999 0)"/></svg>